<svg xmlns="http://www.w3.org/2000/svg" xmlns:xlink="http://www.w3.org/1999/xlink" version="1.1" width="1000" height="1000" viewBox="0 0 1000 1000" xml:space="preserve">
<desc>Created with Fabric.js 3.5.0</desc>
<defs>
</defs>
<rect x="0" y="0" width="100%" height="100%" fill="#ffffff"/>
<g transform="matrix(-1.1364 0 0 -1.1364 499.9855 499.9855)" id="215550">
<g style="" vector-effect="non-scaling-stroke">
		<g transform="matrix(1.5625 0 0 1.5625 0.0007 0)" id="Layer_1">
<path style="stroke: none; stroke-width: 1; stroke-dasharray: none; stroke-linecap: butt; stroke-dashoffset: 0; stroke-linejoin: miter; stroke-miterlimit: 4; is-custom-font: none; font-file-url: none; fill: rgb(255,198,27); fill-rule: nonzero; opacity: 1;" transform=" translate(-256.0005, -256)" d="M 256 469.504 c -3.458 0 -6.914 -1.202 -9.7 -3.605 L 5.152 257.918 C 1.882 255.097 0 250.99 0 246.671 V 57.349 c 0 -5.809 3.386 -11.084 8.666 -13.502 c 5.28 -2.419 11.487 -1.537 15.886 2.256 l 190.153 164 c 6.211 5.357 6.903 14.737 1.548 20.948 c -5.359 6.211 -14.737 6.903 -20.948 1.548 L 29.705 89.772 v 150.095 L 256 435.039 l 226.295 -195.171 V 57.349 c 0 -8.203 6.649 -14.853 14.853 -14.853 c 8.203 0 14.853 6.649 14.853 14.853 v 189.322 c 0 4.321 -1.882 8.426 -5.152 11.248 L 265.7 465.899 C 262.914 468.303 259.456 469.504 256 469.504 z" stroke-linecap="round"/>
</g>
		<g transform="matrix(1.5625 0 0 1.5625 102.9164 0.0008)" id="Layer_1">
<polygon style="stroke: none; stroke-width: 1; stroke-dasharray: none; stroke-linecap: butt; stroke-dashoffset: 0; stroke-linejoin: miter; stroke-miterlimit: 4; is-custom-font: none; font-file-url: none; fill: rgb(254,225,135); fill-rule: nonzero; opacity: 1;" points="-65.8665,198.6515 175.2805,-9.3295 175.2805,-198.6515 -65.8665,9.3285 -65.9245,9.2795 -175.2805,103.5945 "/>
</g>
		<g transform="matrix(1.5625 0 0 1.5625 102.9148 0.0001)" id="Layer_1">
<path style="stroke: none; stroke-width: 1; stroke-dasharray: none; stroke-linecap: butt; stroke-dashoffset: 0; stroke-linejoin: miter; stroke-miterlimit: 4; is-custom-font: none; font-file-url: none; fill: rgb(255,198,27); fill-rule: nonzero; opacity: 1;" transform=" translate(-321.8655, -256.0001)" d="M 256 469.504 c -3.474 0 -6.948 -1.213 -9.742 -3.64 l -109.414 -95.056 c -3.254 -2.826 -5.12 -6.929 -5.111 -11.239 c 0.009 -4.31 1.888 -8.405 5.152 -11.221 l 109.355 -94.315 c 0.385 -0.331 0.781 -0.64 1.19 -0.927 L 487.446 46.101 c 4.398 -3.793 10.605 -4.674 15.886 -2.256 c 5.282 2.418 8.666 7.695 8.666 13.502 v 189.324 c 0 4.321 -1.882 8.426 -5.152 11.248 l -241.147 207.98 C 262.914 468.303 259.456 469.504 256 469.504 z M 169.28 359.635 l 86.755 75.372 l 226.259 -195.14 V 89.772 L 265.7 276.577 c -0.385 0.331 -0.781 0.64 -1.19 0.927 L 169.28 359.635 z" stroke-linecap="round"/>
</g>
</g>
</g>
</svg>